<svg width="1478" height="306" viewBox="0 0 1478 306" fill="none" xmlns="http://www.w3.org/2000/svg">
  <g clip-path="url(#clip0_0_1)">
    <path d="M128.77 289.002C128.56 279.383 128.495 269.851 128.583 260.321C128.602 258.239 127.961 257.56 125.898 257.64C122.577 257.769 119.23 257.824 115.928 257.526C114.546 257.401 112.61 256.599 112.104 255.54C111.612 254.512 112.208 252.415 113.052 251.381C120.709 242.01 128.492 232.741 136.317 223.508C138.67 220.731 140.949 220.77 143.284 223.506C151.018 232.572 158.758 241.634 166.331 250.834C167.355 252.079 168.255 254.475 167.718 255.658C167.201 256.797 164.788 257.442 163.136 257.616C160.117 257.933 157.041 257.851 153.997 257.722C151.83 257.631 151.117 258.349 151.139 260.576C151.231 269.829 151.14 279.084 151.097 288.6C150.009 289.029 148.939 289.345 147.871 289.337C141.57 289.296 135.269 289.18 128.77 289.002Z" fill="#39C4ED"/>
    <path d="M204.926 126.567C209.999 126.415 213.833 130.061 214.301 135.681C214.391 136.759 214.343 137.836 214.344 138.973C214.363 164.974 214.379 190.975 214.395 216.976C214.396 217.69 214.396 218.405 214.395 219.337C213.439 219.387 212.62 219.444 211.787 219.447C207.167 219.468 202.553 219.465 197.929 219.48C197.627 219.481 197.373 219.481 197.149 219.457C196.927 219.433 196.772 219.389 196.662 219.325C196.493 219.229 196.287 219.004 196.287 218.217C196.296 200.922 196.225 183.626 196.177 166.055C196.268 155.88 196.34 145.985 196.454 136.089C196.487 133.228 197.359 130.886 198.828 129.247C200.293 127.612 202.382 126.642 204.926 126.567Z" fill="#7579C2" stroke="#7482D4"/>
    <path d="M73.0989 126.647C77.2167 125.812 81.5147 128.031 83.0104 132.19C83.7411 134.221 83.8974 136.57 83.9049 138.839C83.9919 165.195 83.9991 191.552 84.0189 217.909C84.0192 218.332 83.9555 218.727 83.8777 219.389H66.3121C66.2654 219.124 66.2201 218.88 66.1827 218.668C66.1255 218.343 66.0888 218.073 66.0886 217.811C66.0734 190.622 66.0601 163.432 66.0814 136.242C66.0855 131.157 68.8859 127.502 73.0989 126.647Z" fill="#7479C2" stroke="#7482D4"/>
    <path d="M233.386 6.48877H45.3805C23.898 6.48877 6.48291 23.9198 6.48291 45.422V260.482C6.48291 281.984 23.898 299.415 45.3805 299.415H233.386C254.868 299.415 272.283 281.984 272.283 260.482V45.422C272.283 23.9198 254.868 6.48877 233.386 6.48877Z" stroke="#7482D4" stroke-width="14" stroke-linejoin="round"/>
    <path d="M147.292 85.6015C147.613 85.3427 147.933 85.0838 148.601 84.8069C149.1 84.6121 149.253 84.4352 149.405 84.2583C149.405 84.2583 149.37 84.295 149.572 84.3182C150.819 85.4843 151.863 86.6271 152.906 87.7699C150.407 89.5382 150.143 91.8485 150.335 94.8387C150.711 100.681 145.412 105.278 139.34 104.996C133.32 104.715 128.646 99.4393 129.561 93.3667C129.922 90.9769 129.248 89.7789 127.34 88.3769C127.716 84.8938 128.385 84.436 131.709 84.9522C131.709 84.9522 131.726 84.9394 131.745 85.138C132.331 86.4097 132.896 87.4891 133.952 85.7131C136.981 84.6337 137.651 82.3864 137.29 79.4243C137.068 77.6042 137.258 75.7345 137.251 73.887C137.245 72.4021 136.957 70.8868 139.358 70.9606C141.276 71.0196 142.531 71.2056 142.374 73.6351C142.246 75.6445 142.788 77.7017 142.622 79.7032C142.389 82.4838 143 84.5749 146.03 85.8493C146.593 85.9407 146.943 85.7711 147.292 85.6015Z" fill="#39C4ED"/>
    <path d="M150.629 39.5768C153.118 39.5894 155.335 39.635 157.55 39.6019C159.48 39.5731 160.121 40.5428 160.079 42.371C160.008 45.4206 160.005 48.4754 160.103 51.5239C160.164 53.4247 159.373 54.2474 157.515 54.2406C154.929 54.2312 152.343 54.3313 149.76 54.2848C148.298 54.2585 147.546 54.66 147.555 56.3022C147.57 58.8843 147.331 61.467 147.31 64.0503C147.294 66.1202 146.441 67.1093 144.303 67.0598C141.258 66.9891 138.208 66.995 135.163 67.0661C133.118 67.1138 132.345 66.1561 132.389 64.199C132.445 61.6111 132.342 59.0194 132.419 56.4326C132.466 54.8658 131.846 54.2967 130.303 54.3367C127.72 54.4038 125.133 54.2781 122.549 54.3315C120.401 54.3758 119.581 53.4009 119.655 51.2894C119.755 48.4264 119.745 45.5553 119.661 42.6913C119.596 40.4758 120.459 39.4392 122.749 39.5263C125.146 39.6175 127.556 39.4109 129.948 39.5599C131.968 39.6857 132.527 38.8617 132.421 36.9803C132.293 34.6755 132.463 32.3548 132.356 30.0478C132.252 27.8015 133.219 26.7942 135.435 26.8194C138.297 26.8521 141.161 26.8864 144.021 26.8055C146.349 26.7394 147.457 27.8774 147.542 30.0867C147.631 32.3956 147.745 34.7172 147.6 37.0176C147.464 39.1845 148.38 39.8643 150.629 39.5768Z" fill="#39C4ED"/>
    <path d="M119.217 82.3539C115.56 79.9017 111.874 77.4922 108.263 74.9738C107.028 74.1122 106.169 73.7535 104.628 74.6977C100.436 77.2646 95.1205 76.3487 91.7314 72.822C88.5312 69.4918 87.9994 64.0637 90.4762 60.0112C92.8913 56.0601 97.859 54.0387 102.214 55.2353C106.883 56.5186 110.257 60.8188 109.927 65.7538C109.759 68.2675 110.627 69.6324 112.62 70.8786C114.956 72.3404 117.102 74.11 119.45 76.1081C120.204 76.8501 120.84 77.2299 121.475 77.6098C121.475 77.6098 121.629 77.6001 121.663 77.8521C120.872 79.5208 120.045 80.9373 119.217 82.3539Z" fill="#39C4ED"/>
    <path d="M157.68 78.072C161.462 75.3188 165.297 72.634 168.981 69.7547C169.718 69.1794 170.321 67.8157 170.226 66.8944C169.676 61.57 173.402 56.1534 178.559 55.1052C184.27 53.9447 190.206 57.7742 191.402 63.39C192.528 68.6839 189.273 74.6397 184.023 75.6257C181.421 76.1143 178.367 75.4298 175.811 74.4819C174.084 73.842 173.103 73.7346 171.683 74.8481C169.367 76.6631 166.877 78.2541 164.059 79.9584C161.215 80.7561 159.514 79.205 157.68 78.072Z" fill="#39C4ED"/>
    <path d="M157.498 78.1396C159.514 79.2049 161.215 80.7561 163.876 79.9993C160.496 82.5949 156.895 85.1686 153.1 87.7561C151.863 86.627 150.819 85.4842 149.563 84.2945C152.005 82.2342 154.66 80.2207 157.498 78.1396Z" fill="#39C4ED"/>
    <path d="M119.31 82.519C120.044 80.9375 120.872 79.5209 121.721 77.9041C125.007 80.011 128.271 82.3182 131.623 84.7888C128.385 84.4358 127.716 84.8937 127.235 88.2248C124.61 86.5291 122.007 84.6065 119.31 82.519Z" fill="#39C4ED"/>
    <path d="M133.758 85.6663C132.896 87.489 132.331 86.4096 131.741 85.1472C132.333 85.1785 132.948 85.399 133.758 85.6663Z" fill="#39C4ED"/>
    <path d="M121.391 77.4425C120.84 77.2301 120.204 76.8503 119.542 76.2683C120.114 76.4691 120.709 76.8721 121.391 77.4425Z" fill="#39C4ED"/>
    <path d="M147.096 85.6196C146.943 85.771 146.593 85.9406 146.194 85.9843C146.396 85.7849 146.648 85.7113 147.096 85.6196Z" fill="#39C4ED"/>
    <path d="M149.228 93.552C149.253 93.705 149.1 93.882 148.765 94.073C148.738 93.9172 148.895 93.7467 149.228 93.552Z" fill="#39C4ED"/>
    <path d="M226.731 115.055C211.061 100.958 192.411 103.016 175.9 113.675C166.553 119.709 159.163 127.9 152.735 136.929C152.215 137.661 152.255 139.235 152.668 140.125C157.326 150.185 162.31 160.098 166.812 170.226C175.459 189.68 161.059 211.544 139.816 211.481C118.579 211.417 104.493 190.607 112.672 170.793C116.932 160.473 122.225 150.581 126.92 140.436C127.396 139.407 127.485 137.573 126.882 136.765C118.521 125.538 109.091 115.405 96.09 109.474C81.8776 102.989 68.015 103.133 55.4963 113.377C47.7953 119.68 44.0969 128.368 44.0409 138.283C43.8989 163.371 43.9919 188.461 44.032 213.55C44.0422 219.898 44.113 219.895 37.8083 219.89C34.3878 219.888 30.9656 219.832 27.5476 219.925C25.8228 219.972 25.0838 219.517 25.0881 217.599C25.1483 191.121 24.7692 164.637 25.2641 138.168C25.6367 118.241 34.3275 102.468 52.1053 92.7129C65.3489 85.445 79.5086 84.5106 93.972 88.7048C109.814 93.2988 122.517 102.721 133.467 114.776C135.503 117.019 137.525 119.277 139.794 121.792C141.204 120.143 142.475 118.602 143.803 117.11C153.69 106.004 164.806 96.4542 178.849 91.0587C195.761 84.5613 212.661 84.1535 228.847 93.2821C237.577 98.2053 244.543 105.143 248.632 114.676C246.286 115.248 243.002 113.67 241.721 115.873C239.19 120.227 233.399 115.774 230.908 120.152C232.242 123.8 229.438 116.772 230.908 120.152C233.676 117.234 229.994 119.597 232.459 116.8C233.421 115.71 228.741 119.347 228.951 117.895C229.487 114.177 237.372 114.099 234.775 112.628C231.71 116.417 227.352 109.763 226.731 115.055C227.16 114.663 226.68 115.491 226.731 115.055ZM149.458 186.41C150.847 183.55 150.697 180.65 149.475 177.819C146.88 171.805 144.217 165.818 141.534 159.842C141.084 158.839 140.395 157.945 139.34 156.223C135.916 164.282 132.57 171.372 129.893 178.705C127.83 184.354 130.616 189.692 135.928 191.883C141.073 194.006 146.245 192.047 149.458 186.41ZM230.399 119.772C219.748 106.175 225.761 112.347 228.292 107.993C236.627 98.7235 240.967 106.545 243.365 106.175C248.458 112.2 254.406 126.819 254.471 133.946C254.722 161.781 254.638 189.619 254.671 217.456C254.671 217.722 254.561 217.989 254.407 218.689C250.654 218.689 246.817 218.681 242.981 218.691C235.951 218.707 235.943 218.711 235.937 211.586C235.917 187.818 235.932 164.05 235.855 140.282C235.844 136.788 237.345 133.946 230.399 119.772Z" fill="#7482D4"/>
  </g>
  <path d="M319.739 219.807C316.006 219.807 313.139 218.741 311.139 216.607C309.139 214.474 308.139 211.541 308.139 207.807V87.6073C308.139 83.7406 309.206 80.8073 311.339 78.8073C313.472 76.6739 316.406 75.6073 320.139 75.6073C323.472 75.6073 326.072 76.2739 327.939 77.6073C329.939 78.8073 331.739 80.9406 333.339 84.0073L382.739 175.407H376.339L425.739 84.0073C427.339 80.9406 429.072 78.8073 430.939 77.6073C432.806 76.2739 435.406 75.6073 438.739 75.6073C442.472 75.6073 445.339 76.6739 447.339 78.8073C449.339 80.8073 450.339 83.7406 450.339 87.6073V207.807C450.339 211.541 449.339 214.474 447.339 216.607C445.472 218.741 442.606 219.807 438.739 219.807C435.006 219.807 432.139 218.741 430.139 216.607C428.139 214.474 427.139 211.541 427.139 207.807V115.207H431.539L389.539 191.807C388.206 194.074 386.806 195.741 385.339 196.807C383.872 197.874 381.872 198.407 379.339 198.407C376.806 198.407 374.739 197.874 373.139 196.807C371.539 195.607 370.139 193.941 368.939 191.807L326.539 115.007H331.339V207.807C331.339 211.541 330.339 214.474 328.339 216.607C326.472 218.741 323.606 219.807 319.739 219.807ZM527.172 220.207C516.105 220.207 506.572 218.141 498.572 214.007C490.572 209.874 484.372 204.007 479.972 196.407C475.705 188.807 473.572 179.807 473.572 169.407C473.572 159.274 475.638 150.407 479.772 142.807C484.038 135.207 489.838 129.274 497.172 125.007C504.638 120.607 513.105 118.407 522.572 118.407C529.505 118.407 535.705 119.541 541.172 121.807C546.772 124.074 551.505 127.341 555.372 131.607C559.372 135.874 562.372 141.074 564.372 147.207C566.505 153.207 567.572 160.007 567.572 167.607C567.572 170.007 566.705 171.874 564.972 173.207C563.372 174.407 561.038 175.007 557.972 175.007H493.772V160.607H549.972L546.772 163.607C546.772 157.474 545.838 152.341 543.972 148.207C542.238 144.074 539.638 140.941 536.172 138.807C532.838 136.541 528.638 135.407 523.572 135.407C517.972 135.407 513.172 136.741 509.172 139.407C505.305 141.941 502.305 145.607 500.172 150.407C498.172 155.074 497.172 160.674 497.172 167.207V168.607C497.172 179.541 499.705 187.741 504.772 193.207C509.972 198.541 517.572 201.207 527.572 201.207C531.038 201.207 534.905 200.807 539.172 200.007C543.572 199.074 547.705 197.541 551.572 195.407C554.372 193.807 556.838 193.141 558.972 193.407C561.105 193.541 562.772 194.274 563.972 195.607C565.305 196.941 566.105 198.607 566.372 200.607C566.638 202.474 566.238 204.407 565.172 206.407C564.238 208.407 562.572 210.141 560.172 211.607C555.505 214.541 550.105 216.741 543.972 218.207C537.972 219.541 532.372 220.207 527.172 220.207ZM624.97 220.207C616.437 220.207 608.903 218.141 602.37 214.007C595.97 209.874 590.97 204.007 587.37 196.407C583.77 188.674 581.97 179.607 581.97 169.207C581.97 158.674 583.77 149.674 587.37 142.207C590.97 134.607 595.97 128.741 602.37 124.607C608.903 120.474 616.437 118.407 624.97 118.407C633.103 118.407 640.17 120.407 646.17 124.407C652.303 128.407 656.437 133.674 658.57 140.207H656.37V88.2073C656.37 84.0739 657.437 80.9406 659.57 78.8073C661.703 76.6739 664.77 75.6073 668.77 75.6073C672.77 75.6073 675.837 76.6739 677.97 78.8073C680.237 80.9406 681.37 84.0739 681.37 88.2073V207.007C681.37 211.141 680.303 214.341 678.17 216.607C676.037 218.741 672.97 219.807 668.97 219.807C664.97 219.807 661.903 218.741 659.77 216.607C657.637 214.341 656.57 211.141 656.57 207.007V191.407L658.77 197.407C656.77 204.341 652.703 209.874 646.57 214.007C640.437 218.141 633.237 220.207 624.97 220.207ZM631.97 201.207C636.903 201.207 641.237 200.007 644.97 197.607C648.703 195.207 651.57 191.674 653.57 187.007C655.703 182.207 656.77 176.274 656.77 169.207C656.77 158.541 654.503 150.607 649.97 145.407C645.437 140.074 639.437 137.407 631.97 137.407C627.037 137.407 622.703 138.607 618.97 141.007C615.237 143.274 612.303 146.807 610.17 151.607C608.17 156.274 607.17 162.141 607.17 169.207C607.17 179.741 609.437 187.741 613.97 193.207C618.503 198.541 624.503 201.207 631.97 201.207ZM719.692 219.607C715.692 219.607 712.625 218.407 710.492 216.007C708.359 213.607 707.292 210.274 707.292 206.007V132.607C707.292 128.207 708.359 124.874 710.492 122.607C712.625 120.207 715.692 119.007 719.692 119.007C723.692 119.007 726.759 120.207 728.892 122.607C731.159 124.874 732.292 128.207 732.292 132.607V206.007C732.292 210.274 731.225 213.607 729.092 216.007C726.959 218.407 723.825 219.607 719.692 219.607ZM719.692 100.407C715.025 100.407 711.359 99.2739 708.692 97.0073C706.159 94.6073 704.892 91.3406 704.892 87.2073C704.892 82.9406 706.159 79.6739 708.692 77.4073C711.359 75.1406 715.025 74.0073 719.692 74.0073C724.492 74.0073 728.159 75.1406 730.692 77.4073C733.225 79.6739 734.492 82.9406 734.492 87.2073C734.492 91.3406 733.225 94.6073 730.692 97.0073C728.159 99.2739 724.492 100.407 719.692 100.407Z" fill="#5E5E5F"/>
  <path d="M809.269 220.207C803.402 220.207 797.535 219.741 791.669 218.807C785.802 218.007 780.269 216.741 775.069 215.007C769.869 213.141 765.202 210.874 761.069 208.207C758.669 206.607 757.002 204.674 756.069 202.407C755.135 200.141 754.802 197.941 755.069 195.807C755.469 193.541 756.335 191.607 757.669 190.007C759.135 188.274 760.935 187.207 763.069 186.807C765.202 186.407 767.535 187.007 770.069 188.607C775.935 192.074 782.135 194.607 788.669 196.207C795.202 197.807 802.069 198.607 809.269 198.607C819.802 198.607 827.469 196.874 832.269 193.407C837.069 189.807 839.469 185.207 839.469 179.607C839.469 174.941 837.735 171.274 834.269 168.607C830.935 165.941 825.135 163.741 816.869 162.007L794.869 157.407C782.202 154.741 772.735 150.274 766.469 144.007C760.335 137.607 757.269 129.207 757.269 118.807C757.269 112.274 758.602 106.341 761.269 101.007C763.935 95.6739 767.669 91.0739 772.469 87.2073C777.402 83.3406 783.202 80.4073 789.869 78.4073C796.669 76.2739 804.135 75.2073 812.269 75.2073C820.269 75.2073 827.869 76.2073 835.069 78.2073C842.269 80.2073 848.735 83.1406 854.469 87.0073C856.602 88.4739 858.002 90.2739 858.669 92.4073C859.469 94.5406 859.669 96.6739 859.269 98.8073C858.869 100.807 857.935 102.541 856.469 104.007C855.002 105.474 853.135 106.341 850.869 106.607C848.735 106.874 846.269 106.207 843.469 104.607C838.535 101.807 833.535 99.8073 828.469 98.6073C823.402 97.4073 817.935 96.8073 812.069 96.8073C805.935 96.8073 800.669 97.6739 796.269 99.4073C791.869 101.141 788.469 103.607 786.069 106.807C783.802 109.874 782.669 113.541 782.669 117.807C782.669 122.607 784.269 126.474 787.469 129.407C790.669 132.207 796.135 134.407 803.869 136.007L825.669 140.607C838.869 143.407 848.669 147.807 855.069 153.807C861.602 159.807 864.869 167.807 864.869 177.807C864.869 184.207 863.535 190.007 860.869 195.207C858.335 200.407 854.602 204.874 849.669 208.607C844.869 212.341 839.069 215.207 832.269 217.207C825.469 219.207 817.802 220.207 809.269 220.207ZM919.84 220.207C911.707 220.207 904.974 218.741 899.64 215.807C894.307 212.741 890.307 208.207 887.64 202.207C885.107 196.207 883.84 188.741 883.84 179.807V131.407C883.84 127.141 884.907 124.007 887.04 122.007C889.174 119.874 892.24 118.807 896.24 118.807C900.24 118.807 903.307 119.874 905.44 122.007C907.707 124.007 908.84 127.141 908.84 131.407V180.207C908.84 187.141 910.24 192.274 913.04 195.607C915.84 198.941 920.307 200.607 926.44 200.607C933.107 200.607 938.574 198.341 942.84 193.807C947.107 189.141 949.24 183.007 949.24 175.407V131.407C949.24 127.141 950.307 124.007 952.44 122.007C954.574 119.874 957.64 118.807 961.64 118.807C965.64 118.807 968.707 119.874 970.84 122.007C973.107 124.007 974.24 127.141 974.24 131.407V207.007C974.24 215.541 970.174 219.807 962.04 219.807C958.174 219.807 955.174 218.741 953.04 216.607C950.907 214.341 949.84 211.141 949.84 207.007V191.807L952.64 197.807C949.84 205.007 945.574 210.541 939.84 214.407C934.24 218.274 927.574 220.207 919.84 220.207ZM1012.66 255.807C1008.66 255.807 1005.59 254.741 1003.46 252.607C1001.33 250.474 1000.26 247.341 1000.26 243.207V131.407C1000.26 127.274 1001.33 124.141 1003.46 122.007C1005.59 119.874 1008.59 118.807 1012.46 118.807C1016.46 118.807 1019.53 119.874 1021.66 122.007C1023.79 124.141 1024.86 127.274 1024.86 131.407V147.007L1022.66 141.007C1024.66 134.207 1028.73 128.741 1034.86 124.607C1041.13 120.474 1048.39 118.407 1056.66 118.407C1065.19 118.407 1072.66 120.474 1079.06 124.607C1085.59 128.741 1090.66 134.607 1094.26 142.207C1097.86 149.674 1099.66 158.674 1099.66 169.207C1099.66 179.607 1097.86 188.674 1094.26 196.407C1090.66 204.007 1085.66 209.874 1079.26 214.007C1072.86 218.141 1065.33 220.207 1056.66 220.207C1048.53 220.207 1041.39 218.207 1035.26 214.207C1029.13 210.074 1024.99 204.741 1022.86 198.207H1025.26V243.207C1025.26 247.341 1024.13 250.474 1021.86 252.607C1019.73 254.741 1016.66 255.807 1012.66 255.807ZM1049.66 201.207C1054.59 201.207 1058.93 200.007 1062.66 197.607C1066.39 195.207 1069.26 191.674 1071.26 187.007C1073.39 182.207 1074.46 176.274 1074.46 169.207C1074.46 158.541 1072.19 150.607 1067.66 145.407C1063.13 140.074 1057.13 137.407 1049.66 137.407C1044.73 137.407 1040.39 138.607 1036.66 141.007C1032.93 143.274 1029.99 146.807 1027.86 151.607C1025.86 156.274 1024.86 162.141 1024.86 169.207C1024.86 179.741 1027.13 187.741 1031.66 193.207C1036.19 198.541 1042.19 201.207 1049.66 201.207ZM1132.58 255.807C1128.58 255.807 1125.52 254.741 1123.38 252.607C1121.25 250.474 1120.18 247.341 1120.18 243.207V131.407C1120.18 127.274 1121.25 124.141 1123.38 122.007C1125.52 119.874 1128.52 118.807 1132.38 118.807C1136.38 118.807 1139.45 119.874 1141.58 122.007C1143.72 124.141 1144.78 127.274 1144.78 131.407V147.007L1142.58 141.007C1144.58 134.207 1148.65 128.741 1154.78 124.607C1161.05 120.474 1168.32 118.407 1176.58 118.407C1185.12 118.407 1192.58 120.474 1198.98 124.607C1205.52 128.741 1210.58 134.607 1214.18 142.207C1217.78 149.674 1219.58 158.674 1219.58 169.207C1219.58 179.607 1217.78 188.674 1214.18 196.407C1210.58 204.007 1205.58 209.874 1199.18 214.007C1192.78 218.141 1185.25 220.207 1176.58 220.207C1168.45 220.207 1161.32 218.207 1155.18 214.207C1149.05 210.074 1144.92 204.741 1142.78 198.207H1145.18V243.207C1145.18 247.341 1144.05 250.474 1141.78 252.607C1139.65 254.741 1136.58 255.807 1132.58 255.807ZM1169.58 201.207C1174.52 201.207 1178.85 200.007 1182.58 197.607C1186.32 195.207 1189.18 191.674 1191.18 187.007C1193.32 182.207 1194.38 176.274 1194.38 169.207C1194.38 158.541 1192.12 150.607 1187.58 145.407C1183.05 140.074 1177.05 137.407 1169.58 137.407C1164.65 137.407 1160.32 138.607 1156.58 141.007C1152.85 143.274 1149.92 146.807 1147.78 151.607C1145.78 156.274 1144.78 162.141 1144.78 169.207C1144.78 179.741 1147.05 187.741 1151.58 193.207C1156.12 198.541 1162.12 201.207 1169.58 201.207ZM1273.5 220.207C1262.44 220.207 1254.1 217.074 1248.5 210.807C1242.9 204.407 1240.1 195.074 1240.1 182.807V88.2073C1240.1 84.0739 1241.17 80.9406 1243.3 78.8073C1245.44 76.6739 1248.5 75.6073 1252.5 75.6073C1256.5 75.6073 1259.57 76.6739 1261.7 78.8073C1263.97 80.9406 1265.1 84.0739 1265.1 88.2073V181.607C1265.1 187.741 1266.37 192.274 1268.9 195.207C1271.57 198.141 1275.3 199.607 1280.1 199.607C1281.17 199.607 1282.17 199.607 1283.1 199.607C1284.04 199.474 1284.97 199.341 1285.9 199.207C1287.77 198.941 1289.04 199.474 1289.7 200.807C1290.37 202.007 1290.7 204.541 1290.7 208.407C1290.7 211.741 1290.04 214.341 1288.7 216.207C1287.37 218.074 1285.17 219.207 1282.1 219.607C1280.77 219.741 1279.37 219.874 1277.9 220.007C1276.44 220.141 1274.97 220.207 1273.5 220.207ZM1326.23 255.807C1323.3 255.807 1320.9 255.007 1319.03 253.407C1317.17 251.941 1316.03 249.941 1315.63 247.407C1315.37 244.874 1315.83 242.207 1317.03 239.407L1330.63 209.207V219.607L1294.23 135.407C1293.03 132.474 1292.63 129.741 1293.03 127.207C1293.43 124.674 1294.63 122.674 1296.63 121.207C1298.77 119.607 1301.63 118.807 1305.23 118.807C1308.3 118.807 1310.77 119.541 1312.63 121.007C1314.5 122.341 1316.17 124.941 1317.63 128.807L1344.63 196.207H1338.63L1366.23 128.607C1367.7 124.874 1369.43 122.341 1371.43 121.007C1373.43 119.541 1376.1 118.807 1379.43 118.807C1382.37 118.807 1384.7 119.607 1386.43 121.207C1388.17 122.674 1389.23 124.674 1389.63 127.207C1390.03 129.607 1389.57 132.274 1388.23 135.207L1339.63 246.207C1337.9 249.941 1336.03 252.474 1334.03 253.807C1332.03 255.141 1329.43 255.807 1326.23 255.807Z" fill="#23AED7"/>
  <defs>
    <clipPath id="clip0_0_1">
      <rect width="278.766" height="305.904" fill="white"/>
    </clipPath>
  </defs>
</svg>
