<svg width="1512" height="306" viewBox="0 0 1512 306" fill="none" xmlns="http://www.w3.org/2000/svg">
  <g clip-path="url(#clip0_0_1)">
    <path d="M128.77 289.002C128.56 279.383 128.495 269.851 128.583 260.321C128.602 258.239 127.961 257.56 125.898 257.64C122.577 257.769 119.23 257.824 115.928 257.526C114.546 257.401 112.61 256.599 112.104 255.54C111.612 254.512 112.208 252.415 113.052 251.381C120.709 242.01 128.492 232.741 136.317 223.508C138.67 220.731 140.949 220.77 143.284 223.506C151.018 232.572 158.758 241.634 166.331 250.834C167.355 252.079 168.255 254.475 167.718 255.658C167.201 256.797 164.788 257.442 163.136 257.616C160.117 257.933 157.041 257.851 153.997 257.722C151.83 257.631 151.117 258.349 151.139 260.576C151.231 269.829 151.14 279.084 151.097 288.6C150.009 289.029 148.939 289.345 147.871 289.337C141.57 289.296 135.269 289.18 128.77 289.002Z" fill="#39C4ED"/>
    <path d="M204.926 126.567C209.999 126.415 213.833 130.061 214.301 135.681C214.391 136.759 214.343 137.836 214.344 138.973C214.363 164.974 214.379 190.975 214.395 216.976C214.396 217.69 214.396 218.405 214.395 219.337C213.439 219.387 212.62 219.444 211.787 219.447C207.167 219.468 202.553 219.465 197.929 219.48C197.627 219.481 197.373 219.481 197.149 219.457C196.927 219.433 196.772 219.389 196.662 219.325C196.493 219.229 196.287 219.004 196.287 218.217C196.296 200.922 196.225 183.626 196.177 166.055C196.268 155.88 196.34 145.985 196.454 136.089C196.487 133.228 197.359 130.886 198.828 129.247C200.293 127.612 202.382 126.642 204.926 126.567Z" fill="#7579C2" stroke="#7482D4"/>
    <path d="M73.0989 126.647C77.2167 125.812 81.5147 128.031 83.0104 132.19C83.7411 134.221 83.8974 136.57 83.9049 138.839C83.9919 165.195 83.9991 191.552 84.0189 217.909C84.0192 218.332 83.9555 218.727 83.8777 219.389H66.3121C66.2654 219.124 66.2201 218.88 66.1827 218.668C66.1255 218.343 66.0888 218.073 66.0886 217.811C66.0734 190.622 66.0601 163.432 66.0814 136.242C66.0855 131.157 68.8859 127.502 73.0989 126.647Z" fill="#7479C2" stroke="#7482D4"/>
    <path d="M233.386 6.48877H45.3805C23.898 6.48877 6.48291 23.9198 6.48291 45.422V260.482C6.48291 281.984 23.898 299.415 45.3805 299.415H233.386C254.868 299.415 272.283 281.984 272.283 260.482V45.422C272.283 23.9198 254.868 6.48877 233.386 6.48877Z" stroke="#7482D4" stroke-width="14" stroke-linejoin="round"/>
    <path d="M147.292 85.6015C147.613 85.3427 147.933 85.0838 148.601 84.8069C149.1 84.6121 149.253 84.4352 149.405 84.2583C149.405 84.2583 149.37 84.295 149.572 84.3182C150.819 85.4843 151.863 86.6271 152.906 87.7699C150.407 89.5382 150.143 91.8485 150.335 94.8387C150.711 100.681 145.412 105.278 139.34 104.996C133.32 104.715 128.646 99.4393 129.561 93.3667C129.922 90.9769 129.248 89.7789 127.34 88.3769C127.716 84.8938 128.385 84.436 131.709 84.9522C131.709 84.9522 131.726 84.9394 131.745 85.138C132.331 86.4097 132.896 87.4891 133.952 85.7131C136.981 84.6337 137.651 82.3864 137.29 79.4243C137.068 77.6042 137.258 75.7345 137.251 73.887C137.245 72.4021 136.957 70.8868 139.358 70.9606C141.276 71.0196 142.531 71.2056 142.374 73.6351C142.246 75.6445 142.788 77.7017 142.622 79.7032C142.389 82.4838 143 84.5749 146.03 85.8493C146.593 85.9407 146.943 85.7711 147.292 85.6015Z" fill="#39C4ED"/>
    <path d="M150.629 39.5768C153.118 39.5894 155.335 39.635 157.55 39.6019C159.48 39.5731 160.121 40.5428 160.079 42.371C160.008 45.4206 160.005 48.4754 160.103 51.5239C160.164 53.4247 159.373 54.2474 157.515 54.2406C154.929 54.2312 152.343 54.3313 149.76 54.2848C148.298 54.2585 147.546 54.66 147.555 56.3022C147.57 58.8843 147.331 61.467 147.31 64.0503C147.294 66.1202 146.441 67.1093 144.303 67.0598C141.258 66.9891 138.208 66.995 135.163 67.0661C133.118 67.1138 132.345 66.1561 132.389 64.199C132.445 61.6111 132.342 59.0194 132.419 56.4326C132.466 54.8658 131.846 54.2967 130.303 54.3367C127.72 54.4038 125.133 54.2781 122.549 54.3315C120.401 54.3758 119.581 53.4009 119.655 51.2894C119.755 48.4264 119.745 45.5553 119.661 42.6913C119.596 40.4758 120.459 39.4392 122.749 39.5263C125.146 39.6175 127.556 39.4109 129.948 39.5599C131.968 39.6857 132.527 38.8617 132.421 36.9803C132.293 34.6755 132.463 32.3548 132.356 30.0478C132.252 27.8015 133.219 26.7942 135.435 26.8194C138.297 26.8521 141.161 26.8864 144.021 26.8055C146.349 26.7394 147.457 27.8774 147.542 30.0867C147.631 32.3956 147.745 34.7172 147.6 37.0176C147.464 39.1845 148.38 39.8643 150.629 39.5768Z" fill="#39C4ED"/>
    <path d="M119.217 82.3539C115.56 79.9017 111.874 77.4922 108.263 74.9738C107.028 74.1122 106.169 73.7535 104.628 74.6977C100.436 77.2646 95.1205 76.3487 91.7314 72.822C88.5312 69.4918 87.9994 64.0637 90.4762 60.0112C92.8913 56.0601 97.859 54.0387 102.214 55.2353C106.883 56.5186 110.257 60.8188 109.927 65.7538C109.759 68.2675 110.627 69.6324 112.62 70.8786C114.956 72.3404 117.102 74.11 119.45 76.1081C120.204 76.8501 120.84 77.2299 121.475 77.6098C121.475 77.6098 121.629 77.6001 121.663 77.8521C120.872 79.5208 120.045 80.9373 119.217 82.3539Z" fill="#39C4ED"/>
    <path d="M157.68 78.072C161.462 75.3188 165.297 72.634 168.981 69.7547C169.718 69.1794 170.321 67.8157 170.226 66.8944C169.676 61.57 173.402 56.1534 178.559 55.1052C184.27 53.9447 190.206 57.7742 191.402 63.39C192.528 68.6839 189.273 74.6397 184.023 75.6257C181.421 76.1143 178.367 75.4298 175.811 74.4819C174.084 73.842 173.103 73.7346 171.683 74.8481C169.367 76.6631 166.877 78.2541 164.059 79.9584C161.215 80.7561 159.514 79.205 157.68 78.072Z" fill="#39C4ED"/>
    <path d="M157.498 78.1396C159.514 79.2049 161.215 80.7561 163.876 79.9993C160.496 82.5949 156.895 85.1686 153.1 87.7561C151.863 86.627 150.819 85.4842 149.563 84.2945C152.005 82.2342 154.66 80.2207 157.498 78.1396Z" fill="#39C4ED"/>
    <path d="M119.31 82.519C120.044 80.9375 120.872 79.5209 121.721 77.9041C125.007 80.011 128.271 82.3182 131.623 84.7888C128.385 84.4358 127.716 84.8937 127.235 88.2248C124.61 86.5291 122.007 84.6065 119.31 82.519Z" fill="#39C4ED"/>
    <path d="M133.758 85.6663C132.896 87.489 132.331 86.4096 131.741 85.1472C132.333 85.1785 132.948 85.399 133.758 85.6663Z" fill="#39C4ED"/>
    <path d="M121.391 77.4425C120.84 77.2301 120.204 76.8503 119.542 76.2683C120.114 76.4691 120.709 76.8721 121.391 77.4425Z" fill="#39C4ED"/>
    <path d="M147.096 85.6196C146.943 85.771 146.593 85.9406 146.194 85.9843C146.396 85.7849 146.648 85.7113 147.096 85.6196Z" fill="#39C4ED"/>
    <path d="M149.228 93.552C149.253 93.705 149.1 93.882 148.765 94.073C148.738 93.9172 148.895 93.7467 149.228 93.552Z" fill="#39C4ED"/>
    <path d="M226.731 115.055C211.061 100.958 192.411 103.016 175.9 113.675C166.553 119.709 159.163 127.9 152.735 136.929C152.215 137.661 152.255 139.235 152.668 140.125C157.326 150.185 162.31 160.098 166.812 170.226C175.459 189.68 161.059 211.544 139.816 211.481C118.579 211.417 104.493 190.607 112.672 170.793C116.932 160.473 122.225 150.581 126.92 140.436C127.396 139.407 127.485 137.573 126.882 136.765C118.521 125.538 109.091 115.405 96.09 109.474C81.8776 102.989 68.015 103.133 55.4963 113.377C47.7953 119.68 44.0969 128.368 44.0409 138.283C43.8989 163.371 43.9919 188.461 44.032 213.55C44.0422 219.898 44.113 219.895 37.8083 219.89C34.3878 219.888 30.9656 219.832 27.5476 219.925C25.8228 219.972 25.0838 219.517 25.0881 217.599C25.1483 191.121 24.7692 164.637 25.2641 138.168C25.6367 118.241 34.3275 102.468 52.1053 92.7129C65.3489 85.445 79.5086 84.5106 93.972 88.7048C109.814 93.2988 122.517 102.721 133.467 114.776C135.503 117.019 137.525 119.277 139.794 121.792C141.204 120.143 142.475 118.602 143.803 117.11C153.69 106.004 164.806 96.4542 178.849 91.0587C195.761 84.5613 212.661 84.1535 228.847 93.2821C237.577 98.2053 244.543 105.143 248.632 114.676C246.286 115.248 243.002 113.67 241.721 115.873C239.19 120.227 233.399 115.774 230.908 120.152C232.242 123.8 229.438 116.772 230.908 120.152C233.676 117.234 229.994 119.597 232.459 116.8C233.421 115.71 228.741 119.347 228.951 117.895C229.487 114.177 237.372 114.099 234.775 112.628C231.71 116.417 227.352 109.763 226.731 115.055C227.16 114.663 226.68 115.491 226.731 115.055ZM149.458 186.41C150.847 183.55 150.697 180.65 149.475 177.819C146.88 171.805 144.217 165.818 141.534 159.842C141.084 158.839 140.395 157.945 139.34 156.223C135.916 164.282 132.57 171.372 129.893 178.705C127.83 184.354 130.616 189.692 135.928 191.883C141.073 194.006 146.245 192.047 149.458 186.41ZM230.399 119.772C219.748 106.175 225.761 112.347 228.292 107.993C236.627 98.7235 240.967 106.545 243.365 106.175C248.458 112.2 254.406 126.819 254.471 133.946C254.722 161.781 254.638 189.619 254.671 217.456C254.671 217.722 254.561 217.989 254.407 218.689C250.654 218.689 246.817 218.681 242.981 218.691C235.951 218.707 235.943 218.711 235.937 211.586C235.917 187.818 235.932 164.05 235.855 140.282C235.844 136.788 237.345 133.946 230.399 119.772Z" fill="#7482D4"/>
  </g>
  <path d="M353.739 219.807C350.006 219.807 347.139 218.741 345.139 216.607C343.139 214.474 342.139 211.541 342.139 207.807V87.6073C342.139 83.7406 343.206 80.8073 345.339 78.8073C347.472 76.6739 350.406 75.6073 354.139 75.6073C357.472 75.6073 360.072 76.2739 361.939 77.6073C363.939 78.8073 365.739 80.9406 367.339 84.0073L416.739 175.407H410.339L459.739 84.0073C461.339 80.9406 463.072 78.8073 464.939 77.6073C466.806 76.2739 469.406 75.6073 472.739 75.6073C476.472 75.6073 479.339 76.6739 481.339 78.8073C483.339 80.8073 484.339 83.7406 484.339 87.6073V207.807C484.339 211.541 483.339 214.474 481.339 216.607C479.472 218.741 476.606 219.807 472.739 219.807C469.006 219.807 466.139 218.741 464.139 216.607C462.139 214.474 461.139 211.541 461.139 207.807V115.207H465.539L423.539 191.807C422.206 194.074 420.806 195.741 419.339 196.807C417.872 197.874 415.872 198.407 413.339 198.407C410.806 198.407 408.739 197.874 407.139 196.807C405.539 195.607 404.139 193.941 402.939 191.807L360.539 115.007H365.339V207.807C365.339 211.541 364.339 214.474 362.339 216.607C360.472 218.741 357.606 219.807 353.739 219.807ZM561.172 220.207C550.105 220.207 540.572 218.141 532.572 214.007C524.572 209.874 518.372 204.007 513.972 196.407C509.705 188.807 507.572 179.807 507.572 169.407C507.572 159.274 509.638 150.407 513.772 142.807C518.038 135.207 523.838 129.274 531.172 125.007C538.638 120.607 547.105 118.407 556.572 118.407C563.505 118.407 569.705 119.541 575.172 121.807C580.772 124.074 585.505 127.341 589.372 131.607C593.372 135.874 596.372 141.074 598.372 147.207C600.505 153.207 601.572 160.007 601.572 167.607C601.572 170.007 600.705 171.874 598.972 173.207C597.372 174.407 595.038 175.007 591.972 175.007H527.772V160.607H583.972L580.772 163.607C580.772 157.474 579.838 152.341 577.972 148.207C576.238 144.074 573.638 140.941 570.172 138.807C566.838 136.541 562.638 135.407 557.572 135.407C551.972 135.407 547.172 136.741 543.172 139.407C539.305 141.941 536.305 145.607 534.172 150.407C532.172 155.074 531.172 160.674 531.172 167.207V168.607C531.172 179.541 533.705 187.741 538.772 193.207C543.972 198.541 551.572 201.207 561.572 201.207C565.038 201.207 568.905 200.807 573.172 200.007C577.572 199.074 581.705 197.541 585.572 195.407C588.372 193.807 590.838 193.141 592.972 193.407C595.105 193.541 596.772 194.274 597.972 195.607C599.305 196.941 600.105 198.607 600.372 200.607C600.638 202.474 600.238 204.407 599.172 206.407C598.238 208.407 596.572 210.141 594.172 211.607C589.505 214.541 584.105 216.741 577.972 218.207C571.972 219.541 566.372 220.207 561.172 220.207ZM658.97 220.207C650.437 220.207 642.903 218.141 636.37 214.007C629.97 209.874 624.97 204.007 621.37 196.407C617.77 188.674 615.97 179.607 615.97 169.207C615.97 158.674 617.77 149.674 621.37 142.207C624.97 134.607 629.97 128.741 636.37 124.607C642.903 120.474 650.437 118.407 658.97 118.407C667.103 118.407 674.17 120.407 680.17 124.407C686.303 128.407 690.437 133.674 692.57 140.207H690.37V88.2073C690.37 84.0739 691.437 80.9406 693.57 78.8073C695.703 76.6739 698.77 75.6073 702.77 75.6073C706.77 75.6073 709.837 76.6739 711.97 78.8073C714.237 80.9406 715.37 84.0739 715.37 88.2073V207.007C715.37 211.141 714.303 214.341 712.17 216.607C710.037 218.741 706.97 219.807 702.97 219.807C698.97 219.807 695.903 218.741 693.77 216.607C691.637 214.341 690.57 211.141 690.57 207.007V191.407L692.77 197.407C690.77 204.341 686.703 209.874 680.57 214.007C674.437 218.141 667.237 220.207 658.97 220.207ZM665.97 201.207C670.903 201.207 675.237 200.007 678.97 197.607C682.703 195.207 685.57 191.674 687.57 187.007C689.703 182.207 690.77 176.274 690.77 169.207C690.77 158.541 688.503 150.607 683.97 145.407C679.437 140.074 673.437 137.407 665.97 137.407C661.037 137.407 656.703 138.607 652.97 141.007C649.237 143.274 646.303 146.807 644.17 151.607C642.17 156.274 641.17 162.141 641.17 169.207C641.17 179.741 643.437 187.741 647.97 193.207C652.503 198.541 658.503 201.207 665.97 201.207ZM753.692 219.607C749.692 219.607 746.625 218.407 744.492 216.007C742.359 213.607 741.292 210.274 741.292 206.007V132.607C741.292 128.207 742.359 124.874 744.492 122.607C746.625 120.207 749.692 119.007 753.692 119.007C757.692 119.007 760.759 120.207 762.892 122.607C765.159 124.874 766.292 128.207 766.292 132.607V206.007C766.292 210.274 765.225 213.607 763.092 216.007C760.959 218.407 757.825 219.607 753.692 219.607ZM753.692 100.407C749.025 100.407 745.359 99.2739 742.692 97.0073C740.159 94.6073 738.892 91.3406 738.892 87.2073C738.892 82.9406 740.159 79.6739 742.692 77.4073C745.359 75.1406 749.025 74.0073 753.692 74.0073C758.492 74.0073 762.159 75.1406 764.692 77.4073C767.225 79.6739 768.492 82.9406 768.492 87.2073C768.492 91.3406 767.225 94.6073 764.692 97.0073C762.159 99.2739 758.492 100.407 753.692 100.407Z" fill="#5E5E5F"/>
  <path d="M843.269 220.207C837.402 220.207 831.535 219.741 825.669 218.807C819.802 218.007 814.269 216.741 809.069 215.007C803.869 213.141 799.202 210.874 795.069 208.207C792.669 206.607 791.002 204.674 790.069 202.407C789.135 200.141 788.802 197.941 789.069 195.807C789.469 193.541 790.335 191.607 791.669 190.007C793.135 188.274 794.935 187.207 797.069 186.807C799.202 186.407 801.535 187.007 804.069 188.607C809.935 192.074 816.135 194.607 822.669 196.207C829.202 197.807 836.069 198.607 843.269 198.607C853.802 198.607 861.469 196.874 866.269 193.407C871.069 189.807 873.469 185.207 873.469 179.607C873.469 174.941 871.735 171.274 868.269 168.607C864.935 165.941 859.135 163.741 850.869 162.007L828.869 157.407C816.202 154.741 806.735 150.274 800.469 144.007C794.335 137.607 791.269 129.207 791.269 118.807C791.269 112.274 792.602 106.341 795.269 101.007C797.935 95.6739 801.669 91.0739 806.469 87.2073C811.402 83.3406 817.202 80.4073 823.869 78.4073C830.669 76.2739 838.135 75.2073 846.269 75.2073C854.269 75.2073 861.869 76.2073 869.069 78.2073C876.269 80.2073 882.735 83.1406 888.469 87.0073C890.602 88.4739 892.002 90.2739 892.669 92.4073C893.469 94.5406 893.669 96.6739 893.269 98.8073C892.869 100.807 891.935 102.541 890.469 104.007C889.002 105.474 887.135 106.341 884.869 106.607C882.735 106.874 880.269 106.207 877.469 104.607C872.535 101.807 867.535 99.8073 862.469 98.6073C857.402 97.4073 851.935 96.8073 846.069 96.8073C839.935 96.8073 834.669 97.6739 830.269 99.4073C825.869 101.141 822.469 103.607 820.069 106.807C817.802 109.874 816.669 113.541 816.669 117.807C816.669 122.607 818.269 126.474 821.469 129.407C824.669 132.207 830.135 134.407 837.869 136.007L859.669 140.607C872.869 143.407 882.669 147.807 889.069 153.807C895.602 159.807 898.869 167.807 898.869 177.807C898.869 184.207 897.535 190.007 894.869 195.207C892.335 200.407 888.602 204.874 883.669 208.607C878.869 212.341 873.069 215.207 866.269 217.207C859.469 219.207 851.802 220.207 843.269 220.207ZM953.84 220.207C945.707 220.207 938.974 218.741 933.64 215.807C928.307 212.741 924.307 208.207 921.64 202.207C919.107 196.207 917.84 188.741 917.84 179.807V131.407C917.84 127.141 918.907 124.007 921.04 122.007C923.174 119.874 926.24 118.807 930.24 118.807C934.24 118.807 937.307 119.874 939.44 122.007C941.707 124.007 942.84 127.141 942.84 131.407V180.207C942.84 187.141 944.24 192.274 947.04 195.607C949.84 198.941 954.307 200.607 960.44 200.607C967.107 200.607 972.574 198.341 976.84 193.807C981.107 189.141 983.24 183.007 983.24 175.407V131.407C983.24 127.141 984.307 124.007 986.44 122.007C988.574 119.874 991.64 118.807 995.64 118.807C999.64 118.807 1002.71 119.874 1004.84 122.007C1007.11 124.007 1008.24 127.141 1008.24 131.407V207.007C1008.24 215.541 1004.17 219.807 996.04 219.807C992.174 219.807 989.174 218.741 987.04 216.607C984.907 214.341 983.84 211.141 983.84 207.007V191.807L986.64 197.807C983.84 205.007 979.574 210.541 973.84 214.407C968.24 218.274 961.574 220.207 953.84 220.207ZM1046.66 255.807C1042.66 255.807 1039.59 254.741 1037.46 252.607C1035.33 250.474 1034.26 247.341 1034.26 243.207V131.407C1034.26 127.274 1035.33 124.141 1037.46 122.007C1039.59 119.874 1042.59 118.807 1046.46 118.807C1050.46 118.807 1053.53 119.874 1055.66 122.007C1057.79 124.141 1058.86 127.274 1058.86 131.407V147.007L1056.66 141.007C1058.66 134.207 1062.73 128.741 1068.86 124.607C1075.13 120.474 1082.39 118.407 1090.66 118.407C1099.19 118.407 1106.66 120.474 1113.06 124.607C1119.59 128.741 1124.66 134.607 1128.26 142.207C1131.86 149.674 1133.66 158.674 1133.66 169.207C1133.66 179.607 1131.86 188.674 1128.26 196.407C1124.66 204.007 1119.66 209.874 1113.26 214.007C1106.86 218.141 1099.33 220.207 1090.66 220.207C1082.53 220.207 1075.39 218.207 1069.26 214.207C1063.13 210.074 1058.99 204.741 1056.86 198.207H1059.26V243.207C1059.26 247.341 1058.13 250.474 1055.86 252.607C1053.73 254.741 1050.66 255.807 1046.66 255.807ZM1083.66 201.207C1088.59 201.207 1092.93 200.007 1096.66 197.607C1100.39 195.207 1103.26 191.674 1105.26 187.007C1107.39 182.207 1108.46 176.274 1108.46 169.207C1108.46 158.541 1106.19 150.607 1101.66 145.407C1097.13 140.074 1091.13 137.407 1083.66 137.407C1078.73 137.407 1074.39 138.607 1070.66 141.007C1066.93 143.274 1063.99 146.807 1061.86 151.607C1059.86 156.274 1058.86 162.141 1058.86 169.207C1058.86 179.741 1061.13 187.741 1065.66 193.207C1070.19 198.541 1076.19 201.207 1083.66 201.207ZM1166.58 255.807C1162.58 255.807 1159.52 254.741 1157.38 252.607C1155.25 250.474 1154.18 247.341 1154.18 243.207V131.407C1154.18 127.274 1155.25 124.141 1157.38 122.007C1159.52 119.874 1162.52 118.807 1166.38 118.807C1170.38 118.807 1173.45 119.874 1175.58 122.007C1177.72 124.141 1178.78 127.274 1178.78 131.407V147.007L1176.58 141.007C1178.58 134.207 1182.65 128.741 1188.78 124.607C1195.05 120.474 1202.32 118.407 1210.58 118.407C1219.12 118.407 1226.58 120.474 1232.98 124.607C1239.52 128.741 1244.58 134.607 1248.18 142.207C1251.78 149.674 1253.58 158.674 1253.58 169.207C1253.58 179.607 1251.78 188.674 1248.18 196.407C1244.58 204.007 1239.58 209.874 1233.18 214.007C1226.78 218.141 1219.25 220.207 1210.58 220.207C1202.45 220.207 1195.32 218.207 1189.18 214.207C1183.05 210.074 1178.92 204.741 1176.78 198.207H1179.18V243.207C1179.18 247.341 1178.05 250.474 1175.78 252.607C1173.65 254.741 1170.58 255.807 1166.58 255.807ZM1203.58 201.207C1208.52 201.207 1212.85 200.007 1216.58 197.607C1220.32 195.207 1223.18 191.674 1225.18 187.007C1227.32 182.207 1228.38 176.274 1228.38 169.207C1228.38 158.541 1226.12 150.607 1221.58 145.407C1217.05 140.074 1211.05 137.407 1203.58 137.407C1198.65 137.407 1194.32 138.607 1190.58 141.007C1186.85 143.274 1183.92 146.807 1181.78 151.607C1179.78 156.274 1178.78 162.141 1178.78 169.207C1178.78 179.741 1181.05 187.741 1185.58 193.207C1190.12 198.541 1196.12 201.207 1203.58 201.207ZM1307.5 220.207C1296.44 220.207 1288.1 217.074 1282.5 210.807C1276.9 204.407 1274.1 195.074 1274.1 182.807V88.2073C1274.1 84.0739 1275.17 80.9406 1277.3 78.8073C1279.44 76.6739 1282.5 75.6073 1286.5 75.6073C1290.5 75.6073 1293.57 76.6739 1295.7 78.8073C1297.97 80.9406 1299.1 84.0739 1299.1 88.2073V181.607C1299.1 187.741 1300.37 192.274 1302.9 195.207C1305.57 198.141 1309.3 199.607 1314.1 199.607C1315.17 199.607 1316.17 199.607 1317.1 199.607C1318.04 199.474 1318.97 199.341 1319.9 199.207C1321.77 198.941 1323.04 199.474 1323.7 200.807C1324.37 202.007 1324.7 204.541 1324.7 208.407C1324.7 211.741 1324.04 214.341 1322.7 216.207C1321.37 218.074 1319.17 219.207 1316.1 219.607C1314.77 219.741 1313.37 219.874 1311.9 220.007C1310.44 220.141 1308.97 220.207 1307.5 220.207ZM1360.23 255.807C1357.3 255.807 1354.9 255.007 1353.03 253.407C1351.17 251.941 1350.03 249.941 1349.63 247.407C1349.37 244.874 1349.83 242.207 1351.03 239.407L1364.63 209.207V219.607L1328.23 135.407C1327.03 132.474 1326.63 129.741 1327.03 127.207C1327.43 124.674 1328.63 122.674 1330.63 121.207C1332.77 119.607 1335.63 118.807 1339.23 118.807C1342.3 118.807 1344.77 119.541 1346.63 121.007C1348.5 122.341 1350.17 124.941 1351.63 128.807L1378.63 196.207H1372.63L1400.23 128.607C1401.7 124.874 1403.43 122.341 1405.43 121.007C1407.43 119.541 1410.1 118.807 1413.43 118.807C1416.37 118.807 1418.7 119.607 1420.43 121.207C1422.17 122.674 1423.23 124.674 1423.63 127.207C1424.03 129.607 1423.57 132.274 1422.23 135.207L1373.63 246.207C1371.9 249.941 1370.03 252.474 1368.03 253.807C1366.03 255.141 1363.43 255.807 1360.23 255.807Z" fill="#23AED7"/>
  <defs>
    <clipPath id="clip0_0_1">
      <rect width="278.766" height="305.904" fill="white"/>
    </clipPath>
  </defs>
</svg>
