<svg width="1278" height="567" viewBox="0 0 1278 567" fill="none" xmlns="http://www.w3.org/2000/svg">
<path d="M791.276 302.65C799.207 348.077 833.995 368.177 876.682 370.038C900.847 371.091 924.557 365.754 947.743 357.679C949.621 357.024 951.67 354.133 952.159 352.003C957.7 327.915 962.482 303.675 968.383 279.664C979.718 233.545 1033.86 212.504 1070.24 239.741C1106.61 266.969 1102.79 322.479 1062.09 347.767C1040.89 360.937 1018.49 372.017 996.779 384.316C994.578 385.563 991.958 388.755 991.904 390.984C991.15 421.904 993.704 452.215 1008.04 479.509C1023.71 509.347 1047.71 526.788 1082.98 524.298C1104.68 522.767 1122.73 511.82 1136.16 494.013C1170.17 448.955 1203.77 403.593 1237.46 358.301C1245.99 346.841 1245.86 346.756 1256.68 354.814C1262.55 359.184 1268.35 363.655 1274.34 367.852C1277.37 369.969 1278.02 371.733 1275.43 375.186C1239.7 422.854 1204.71 471.097 1168.24 518.194C1140.79 553.651 1104.64 570.998 1061 565.891C1028.48 562.088 1002.91 545.694 983.729 519.665C962.714 491.154 953.585 457.947 951.01 422.228C950.532 415.583 950.099 408.931 949.59 401.497C944.95 402.672 940.693 403.828 936.407 404.823C904.489 412.225 872.553 415.254 841.185 407.054C803.408 397.177 773.848 376.337 758.345 339.211C749.982 319.186 747.36 297.783 753.169 275.372C757.966 277.336 761.48 284.374 766.643 282.037C776.848 277.417 780.797 292.839 790.964 288.126C793.584 279.844 788.939 296.098 790.964 288.126C782.285 289.853 791.787 290.293 783.79 292.19C780.672 292.929 793.601 292.344 791.287 294.693C785.363 300.714 771.724 290.787 774.202 296.756C784.561 293.837 783.089 311.4 791.276 302.65C790.012 302.809 791.95 301.928 791.276 302.65ZM1019.96 272.638C1013.72 276.023 1010.08 281.443 1008.36 288.107C1004.73 302.266 1001.24 316.46 997.805 330.662C997.228 333.046 997.207 335.539 996.701 339.989C1013.43 329.829 1028.71 321.316 1043.17 311.511C1054.32 303.958 1056.72 290.776 1050.55 280.043C1044.57 269.646 1033.06 266.575 1019.96 272.638ZM791.327 289.461C791.314 327.578 789.299 308.771 779.094 313.391C752.311 319.465 755.386 299.819 750.771 297.426C750.135 280.057 759.597 246.102 769.075 233.169C806.101 182.656 843.705 132.563 881.109 82.3247C881.467 81.8449 882.016 81.5043 883.222 80.4385C889.664 85.2297 896.241 90.1419 902.839 95.0229C914.93 103.969 914.95 103.973 905.372 116.827C873.422 159.714 841.411 202.553 809.56 245.512C804.878 251.826 798.476 255.034 791.327 289.461Z" fill="#E8ECFF"/>
<path d="M641.976 165.193C616.225 145.973 589.184 152.609 566.937 172.326C554.344 183.488 545.042 197.674 537.315 212.995C536.69 214.237 537.051 216.696 537.828 218.014C546.607 232.922 555.838 247.541 564.4 262.585C580.845 291.481 563.851 328.368 532.589 332.154C501.338 335.938 476.631 305.912 484.867 273.374C489.157 256.427 495.049 239.962 500.013 223.209C500.516 221.511 500.296 218.622 499.254 217.465C484.804 201.405 468.992 187.256 448.731 180.341C426.583 172.782 406.218 175.541 389.765 193.88C379.643 205.161 375.867 219.451 377.684 234.994C382.28 274.324 387.222 313.614 392.086 352.912C393.317 362.856 393.42 362.838 384.145 363.984C379.113 364.607 374.068 365.144 369.058 365.914C366.53 366.304 365.356 365.726 364.995 362.72C360.012 321.228 354.382 279.805 350.041 238.247C346.772 206.961 356.536 180.66 380.819 162.125C398.908 148.318 419.559 144.264 441.638 148.19C465.822 152.49 486.313 164.927 504.729 181.812C508.154 184.953 511.56 188.12 515.38 191.647C517.138 188.805 518.713 186.157 520.38 183.578C532.797 164.371 547.32 147.376 566.945 136.356C590.578 123.084 615.359 119.354 640.917 130.695C654.703 136.812 666.278 146.406 674.119 160.594C670.777 161.919 665.644 160.047 664.182 163.733C661.293 171.017 651.922 165.1 649.096 172.414C651.757 177.886 646.287 167.387 649.096 172.414C652.609 167.337 647.645 171.713 650.736 166.879C651.941 164.994 645.754 171.549 645.785 169.237C645.862 163.313 657.445 161.75 653.343 159.92C649.56 166.415 641.875 156.789 641.976 165.193C642.531 164.5 641.984 165.885 641.976 165.193ZM541.971 291.114C543.467 286.379 542.691 281.863 540.351 277.652C535.382 268.704 530.319 259.812 525.227 250.94C524.373 249.451 523.188 248.175 521.307 245.672C517.812 258.924 514.249 270.643 511.715 282.621C509.763 291.848 514.884 299.701 523.116 302.163C531.092 304.547 538.325 300.533 541.971 291.114ZM648.274 171.912C630.003 152.558 640.029 161.129 642.919 153.844C653.405 137.797 661.287 149.258 664.743 148.239C673.39 156.747 684.939 178.562 686.399 189.715C692.099 233.277 697.308 276.905 702.688 320.511C702.739 320.927 702.628 321.366 702.535 322.49C697.015 323.177 691.369 323.867 685.728 324.583C675.39 325.895 675.378 325.902 674.006 314.741C669.423 277.507 664.894 240.268 660.228 203.046C659.542 197.574 661.206 192.847 648.274 171.912Z" fill="#E8ECFF"/>
<path d="M243.722 449.491C262.613 416.22 253.109 382.277 229.69 354.879C216.433 339.37 200.141 328.136 182.737 318.934C181.326 318.189 178.666 318.737 177.288 319.768C161.705 331.42 146.477 343.633 130.728 355.016C100.478 376.879 58.7101 356.758 51.9733 317.372C45.2405 278 76.0411 245.649 112.324 254.857C131.222 259.653 149.725 266.492 168.466 272.148C170.366 272.721 173.508 272.336 174.687 270.976C191.059 252.111 205.228 231.595 211.112 205.722C217.544 177.438 212.835 151.792 191.406 131.669C178.223 119.289 162.276 115.044 145.421 117.917C102.771 125.185 60.1943 132.889 17.6022 140.495C6.82549 142.42 6.85304 142.55 4.82977 130.865C3.73098 124.526 2.72449 118.167 1.46593 111.861C0.830006 108.679 1.36484 107.173 4.62321 106.605C49.6058 98.7685 94.4594 90.1153 139.567 83.0867C173.526 77.7953 203.112 89.1654 225.406 119.181C242.013 141.541 248.162 167.501 245.699 195.562C243.001 226.299 231.094 252.667 214.149 276.577C210.997 281.024 207.815 285.449 204.272 290.409C207.528 292.526 210.556 294.419 213.516 296.431C235.56 311.42 255.36 329.153 269.046 353.556C285.528 382.946 291.665 414.14 281.378 446.875C275.829 464.532 266.293 479.522 251.421 489.961C249.694 485.785 251.315 479.226 247.162 477.514C238.952 474.13 244.648 462.064 236.412 458.761C230.646 462.328 241.679 455.023 236.412 458.761C242.259 463.015 237.059 456.901 242.604 460.629C244.766 462.084 237.08 454.504 239.613 454.458C246.101 454.335 248.772 468.922 250.434 463.668C243.013 459.126 252.908 449.052 243.722 449.491C244.525 450.168 242.965 449.527 243.722 449.491ZM97.6532 327.714C102.959 329.43 107.834 328.281 112.248 325.168C121.626 318.553 130.934 311.822 140.218 305.056C141.776 303.921 143.073 302.375 145.657 299.904C130.868 295.976 117.751 291.906 104.435 289.145C94.1773 287.019 86.0107 293.784 84.0005 304.284C82.0533 314.457 87.0456 323.453 97.6532 327.714ZM236.893 457.703C256.552 433.885 248.007 446.879 256.216 450.263C274.643 462.926 262.758 473.317 264.16 477.649C255.569 488.897 232.659 504.307 220.579 506.566C173.391 515.387 126.09 523.59 78.828 532.006C78.3762 532.086 77.8874 531.962 76.6493 531.887C75.4404 524.933 74.2168 517.821 72.9653 510.715C70.672 497.692 70.6631 497.678 82.7604 495.528C123.117 488.355 163.484 481.25 203.821 473.97C209.751 472.901 215.061 474.83 236.893 457.703Z" fill="#E8ECFF"/>
</svg>
